# xmcd
#
# Track frame offsets: 
#        150
#        16652
#        34505
#        53705
#        73357
#        99535
#        116262
#        135390
#        155340
#        171542
#        190595
#
# Disc length: 2656 seconds
#
# Revision: 0
# Processed by: cddbd v1.5.2PL0 Copyright (c) Steve Scherf et al.
# Submitted via: ExactAudioCopy v0.99pb5
#
DISCID=870a5e0b
DTITLE=Timothea - Goin Home To Mama
DYEAR=1995
DGENRE=Blues
TTITLE0=You Make Me Feel Good
TTITLE1=The American Way
TTITLE2=Doggone This Rain
TTITLE3=Done Got Over
TTITLE4=Turtle Blues
TTITLE5=If I Go
TTITLE6=Goin' Home to Mama
TTITLE7=If Ya Think About It
TTITLE8=Always "(In The Same Ole Way)"
TTITLE9=Help Is On The Way
TTITLE10=Blessed Assurance
EXTD=
EXTT0=
EXTT1=
EXTT2=
EXTT3=
EXTT4=
EXTT5=
EXTT6=
EXTT7=
EXTT8=
EXTT9=
EXTT10=
PLAYORDER=
